<svg xmlns="http://www.w3.org/2000/svg" viewBox="0 0 1440 760" preserveAspectRatio="xMidYMid slice" role="img" aria-hidden="true">
  <defs>
    <linearGradient id="trunk" x1="0" y1="0" x2="1" y2="0">
      <stop offset="0" stop-color="#d3e0db"/>
      <stop offset="0.5" stop-color="#e7efeb"/>
      <stop offset="1" stop-color="#cdddd6"/>
    </linearGradient>
  </defs>
  <!-- birch grove: pale trunks with characteristic bark marks -->
  <g fill="url(#trunk)">
    <rect x="70"   y="115" width="30" height="700" rx="15"/>
    <rect x="255"  y="55"  width="22" height="760" rx="11"/>
    <rect x="440"  y="185" width="36" height="620" rx="18"/>
    <rect x="662"  y="90"  width="26" height="700" rx="13"/>
    <rect x="900"  y="150" width="30" height="660" rx="15"/>
    <rect x="1105" y="60"  width="23" height="760" rx="11"/>
    <rect x="1300" y="140" width="33" height="640" rx="16"/>
  </g>
  <!-- thin branches -->
  <g stroke="#dbe7e2" stroke-width="5" fill="none" stroke-linecap="round">
    <path d="M85 210 q-45 -30 -78 -18"/>
    <path d="M266 150 q55 -34 96 -20"/>
    <path d="M675 175 q52 -30 92 -14"/>
    <path d="M915 235 q-48 -28 -84 -14"/>
    <path d="M1116 150 q46 -30 82 -16"/>
  </g>
  <!-- bark lenticel marks -->
  <g fill="#a9c0b8">
    <rect x="74"  y="230" width="16" height="5" rx="2"/>
    <rect x="80"  y="330" width="12" height="5" rx="2"/>
    <rect x="73"  y="470" width="18" height="5" rx="2"/>
    <rect x="79"  y="600" width="13" height="5" rx="2"/>
    <rect x="258" y="170" width="12" height="4" rx="2"/>
    <rect x="261" y="290" width="9"  height="4" rx="2"/>
    <rect x="257" y="430" width="13" height="4" rx="2"/>
    <rect x="260" y="560" width="10" height="4" rx="2"/>
    <rect x="446" y="300" width="20" height="6" rx="3"/>
    <rect x="452" y="420" width="15" height="6" rx="3"/>
    <rect x="445" y="560" width="22" height="6" rx="3"/>
    <rect x="667" y="210" width="14" height="5" rx="2"/>
    <rect x="671" y="340" width="10" height="5" rx="2"/>
    <rect x="666" y="500" width="16" height="5" rx="2"/>
    <rect x="905" y="270" width="16" height="5" rx="2"/>
    <rect x="910" y="400" width="12" height="5" rx="2"/>
    <rect x="904" y="560" width="18" height="5" rx="2"/>
    <rect x="1108" y="180" width="12" height="4" rx="2"/>
    <rect x="1111" y="320" width="9"  height="4" rx="2"/>
    <rect x="1107" y="470" width="13" height="4" rx="2"/>
    <rect x="1305" y="270" width="18" height="6" rx="3"/>
    <rect x="1310" y="410" width="13" height="6" rx="3"/>
    <rect x="1304" y="560" width="20" height="6" rx="3"/>
  </g>
</svg>
